External Loads File
version=1
nRows=91
nColumns=13
Range=1.000000e-02-10 seconds
endheader
time 	forceRightX 	forceRightY 	forceRightZ 	pointRightX 	pointRightY 	pointRightZ 	forceLeftX 	forceLeftY 	forceLeftZ 	pointLeftX 	pointLeftY 	pointLeftZ 		
2.510000 -1.591721 246.247129 -3.805570 0.483994 0.396992 -0.096210 363.089630 3753.767902 -53.379357 0.195424 0.207989 -0.334944
2.520000 -6.947598 247.889562 -3.894877 0.489108 0.386166 -0.096228 610.313221 3721.566901 -49.927634 0.190817 0.218198 -0.334915
2.530000 -9.683697 250.338382 -3.965254 0.493356 0.374794 -0.096219 892.187973 3664.239561 -45.675147 0.187045 0.228767 -0.334976
2.540000 -14.497414 254.062895 -4.080094 0.496892 0.363040 -0.095813 1133.807555 3596.848303 -41.749324 0.184231 0.239722 -0.334931
2.550000 -18.417748 259.605873 -4.212211 0.499759 0.350934 -0.095669 1373.830097 3512.228781 -37.577680 0.182297 0.250796 -0.334935
2.560000 -21.012152 266.975681 -4.356563 0.501744 0.338697 -0.095325 1614.832423 3408.202175 -33.095898 0.181220 0.261760 -0.334928
2.570000 -23.874366 275.854045 -4.527315 0.502955 0.326188 -0.094790 1839.168319 3292.574637 -28.635043 0.181060 0.273149 -0.334948
2.580000 -24.272684 286.408715 -4.694378 0.503468 0.313462 -0.095562 2082.445376 3144.310513 -23.445818 0.181718 0.284438 -0.334930
2.590000 -22.274799 298.666720 -4.858976 0.503201 0.300817 -0.095587 2337.141166 2959.805159 -17.562755 0.183231 0.295662 -0.334953
2.600000 -24.206118 312.202191 -5.090207 0.501981 0.288273 -0.095453 2537.816055 2789.519463 -12.544387 0.185554 0.306942 -0.334995
2.610000 -28.098503 327.379971 -5.370145 0.500054 0.275688 -0.095288 2711.597280 2620.815336 -7.871963 0.188461 0.318209 -0.334909
2.620000 -27.317720 344.881086 -5.629921 0.497289 0.263272 -0.095289 2909.441625 2399.160672 -2.097548 0.192261 0.329259 -0.334982
2.630000 -31.447096 363.706899 -5.968789 0.493657 0.250967 -0.095291 3053.578848 2212.654718 2.494099 0.196642 0.340271 -0.334974
2.640000 -31.644556 385.041972 -6.299219 0.489227 0.238912 -0.095218 3207.622164 1982.512559 7.875206 0.201854 0.351158 -0.335107
2.650000 -33.675008 408.165267 -6.679068 0.484012 0.227102 -0.095385 3333.236175 1762.814720 12.755723 0.207596 0.362168 -0.335111
2.660000 -24.544401 433.522621 -6.959793 0.477899 0.215735 -0.095411 3480.981417 1448.873194 19.350091 0.214003 0.372907 -0.335086
2.670000 -56.584518 456.312948 -7.693410 0.471135 0.204801 -0.095375 3481.128418 1448.114460 19.363516 0.220880 0.383291 -0.334932
2.680000 -26.386710 484.837676 -7.770896 0.463559 0.194435 -0.095370 3645.838989 959.961620 28.839616 0.228510 0.393467 -0.334928
2.690000 -28.014533 508.820274 -8.159143 0.455363 0.184626 -0.095360 3701.085955 717.442390 33.229531 0.236758 0.403252 -0.334925
2.700000 -24.777060 529.093751 -8.432170 0.446553 0.175430 -0.095309 3743.002803 449.593582 37.849522 0.245381 0.412620 -0.334858
2.710000 -20.223688 543.320063 -8.596474 0.437201 0.167109 -0.095261 3765.242092 186.695744 42.158056 0.254498 0.421329 -0.334775
2.720000 -4.011434 550.487294 -8.512800 0.427381 0.159302 -0.095195 3767.179090 -142.105261 47.237184 0.264129 0.429379 -0.334843
2.730000 3.612036 549.363009 -8.404342 0.417163 0.152412 -0.095163 3748.490985 -400.870829 50.992722 0.274162 0.436982 -0.334773
2.740000 14.059104 539.235550 -8.123675 0.406621 0.146359 -0.094989 3709.510226 -671.959069 54.695063 0.284642 0.443895 -0.334954
2.750000 23.255165 520.399485 -7.724057 0.395776 0.141120 -0.094976 3652.554691 -933.215973 58.031266 0.295447 0.449999 -0.334985
2.760000 28.997820 493.805499 -7.246445 0.384431 0.136816 -0.094650 3582.650751 -1173.337894 60.887627 0.306318 0.455258 -0.335094
2.770000 36.901676 461.161889 -6.649962 0.373154 0.133398 -0.094527 3486.341934 -1434.454437 63.751042 0.317270 0.459749 -0.335120
2.780000 40.488342 425.499162 -6.058684 0.361757 0.130769 -0.094414 3381.305110 -1667.071768 66.071847 0.328548 0.463407 -0.336224
2.790000 60.623899 386.649776 -5.220496 0.350176 0.129027 -0.094265 3170.658378 -2039.480057 69.279215 0.339945 0.466268 -0.335723
2.800000 66.641683 350.286203 -4.589367 0.338529 0.128203 -0.094145 2983.488338 -2304.675546 71.118735 0.351144 0.468130 -0.335586
2.810000 57.284925 319.595789 -4.229339 0.327073 0.128285 -0.094286 2880.347136 -2432.404365 71.849342 0.362413 0.469042 -0.335680
2.820000 60.860864 290.232604 -3.735058 0.315483 0.129133 -0.094233 2666.968972 -2664.805959 72.871166 0.373497 0.468831 -0.335730
2.830000 59.633845 265.255119 -3.365654 0.303937 0.131050 -0.094126 2479.702497 -2840.151163 73.327907 0.384504 0.467760 -0.335787
2.840000 59.283272 242.888620 -3.025917 0.292639 0.133902 -0.094048 2271.202621 -3009.770793 73.442675 0.395286 0.465821 -0.335786
2.850000 57.938670 222.508240 -2.728609 0.281502 0.137449 -0.093990 2059.022376 -3158.955544 73.199201 0.405923 0.462828 -0.335557
2.860000 55.692969 203.508038 -2.463300 0.270732 0.142002 -0.093931 1838.887688 -3292.089878 72.613794 0.416053 0.459195 -0.335638
2.870000 56.248708 184.506640 -2.164470 0.260352 0.147266 -0.093915 1541.132019 -3441.606664 71.352022 0.425836 0.454576 -0.335724
2.880000 52.071648 168.259777 -1.964596 0.250390 0.153484 -0.093998 1304.808840 -3537.966141 70.007528 0.435138 0.449052 -0.335781
2.890000 48.538906 153.966813 -1.787062 0.240915 0.160252 -0.094066 1049.968706 -3621.796542 68.248930 0.443925 0.442621 -0.335824
2.900000 44.784739 142.473853 -1.655232 0.231919 0.168025 -0.094083 807.517712 -3683.512215 66.298436 0.452177 0.435400 -0.335857
2.910000 42.293817 133.606175 -1.548663 0.223477 0.176199 -0.094109 549.437411 -3730.867714 63.940215 0.459871 0.427347 -0.336017
2.920000 40.539951 126.927661 -1.466942 0.215838 0.185077 -0.094218 288.802456 -3760.196397 61.274244 0.466914 0.418534 -0.336087
2.930000 39.145117 121.635697 -1.402249 0.208928 0.194385 -0.094242 30.416433 -3771.287711 58.354733 0.473362 0.409187 -0.336219
2.940000 38.113365 116.337035 -1.333110 0.202789 0.204120 -0.094250 -241.841931 -3763.724356 54.982469 0.479013 0.399235 -0.336181
2.950000 37.587099 109.820860 -1.239205 0.197635 0.214389 -0.094387 -552.264125 -3730.845725 50.764529 0.484281 0.388626 -0.336183
2.960000 34.787753 102.255237 -1.156346 0.193280 0.225086 -0.094373 -823.023480 -3680.596131 46.753806 0.488836 0.377605 -0.336330
2.970000 29.840143 93.637748 -1.083004 0.189806 0.236153 -0.094199 -1062.422377 -3618.719380 42.939336 0.492498 0.366013 -0.336917
2.980000 24.273691 84.234555 -1.004981 0.187173 0.247303 -0.094210 -1321.027406 -3532.443597 38.519995 0.495863 0.354303 -0.336291
2.990000 17.587616 75.347247 -0.948281 0.185476 0.258728 -0.094171 -1557.627087 -3434.564255 34.185391 0.497843 0.342070 -0.336130
3.000000 10.732077 67.666211 -0.912155 0.184590 0.270345 -0.094180 -1787.056395 -3320.825097 29.692661 0.499102 0.329635 -0.335959
3.010000 4.385361 61.692298 -0.896196 0.184582 0.282079 -0.094213 -2014.970636 -3187.593837 24.918321 0.499601 0.316956 -0.335828
3.020000 -1.398169 57.779685 -0.905197 0.185341 0.293705 -0.094204 -2226.002885 -3043.948359 20.185735 0.499342 0.304289 -0.335873
3.030000 -5.262361 56.055173 -0.924892 0.186942 0.305376 -0.094222 -2473.532526 -2846.493219 14.189244 0.498140 0.291615 -0.336227
3.040000 -8.642225 56.140907 -0.966630 0.189214 0.316827 -0.094200 -2677.774164 -2655.363306 8.807700 0.496107 0.278909 -0.336116
3.050000 -11.095294 57.393035 -1.015221 0.192414 0.328346 -0.094178 -2857.370611 -2461.170126 3.673787 0.493195 0.266360 -0.336100
3.060000 -12.175657 59.119313 -1.054686 0.196224 0.339609 -0.094280 -3022.442463 -2255.417422 -1.464175 0.489441 0.253971 -0.335914
3.070000 -11.815946 60.760164 -1.075615 0.200945 0.350888 -0.094334 -3166.042952 -2048.896087 -6.357179 0.484986 0.241795 -0.336076
3.080000 -13.804331 61.331304 -1.108177 0.206429 0.361899 -0.094432 -3172.654430 -2038.560832 -6.595171 0.479679 0.229878 -0.336063
3.090000 -15.782054 61.708036 -1.137622 0.212494 0.372824 -0.094524 -3172.223514 -2039.097942 -6.581759 0.473412 0.218251 -0.335876
3.100000 -18.417586 62.148118 -1.175907 0.219267 0.383281 -0.094612 -3172.186335 -2039.002236 -6.582786 0.466597 0.207134 -0.336167
3.110000 -23.355019 62.912029 -1.246701 0.226659 0.393514 -0.094772 -3166.286668 -2048.026042 -6.373472 0.459002 0.196492 -0.336008
3.120000 -30.769078 64.338037 -1.357294 0.234719 0.403541 -0.094818 -3166.290412 -2047.995664 -6.373984 0.450749 0.186584 -0.335876
3.130000 -8.778258 77.639183 -1.298835 0.243303 0.413324 -0.095066 -3733.979425 -525.279098 -36.577796 0.441959 0.177185 -0.335668
3.140000 -11.501772 86.417582 -1.466391 0.252331 0.422360 -0.095187 -3760.865949 -273.675893 -40.768230 0.432681 0.168554 -0.335548
3.150000 -12.027696 97.006190 -1.635502 0.261568 0.430745 -0.095941 -3770.853912 6.672051 -45.198579 0.423118 0.160769 -0.336300
3.160000 -11.883469 108.629882 -1.812514 0.271926 0.438647 -0.095461 -3762.513201 250.933211 -48.854828 0.412955 0.153653 -0.335710
3.170000 -10.219098 121.004487 -1.982894 0.282456 0.445920 -0.095579 -3735.537802 514.916531 -52.591491 0.402626 0.147239 -0.335527
3.180000 -6.344593 133.772306 -2.132888 0.293249 0.452234 -0.095676 -3678.536289 829.315847 -56.744313 0.392103 0.141798 -0.335436
3.190000 -3.360172 146.018798 -2.285511 0.304080 0.457839 -0.095702 -3606.521376 1101.145430 -60.062996 0.381441 0.137159 -0.335257
3.200000 -1.250675 157.529875 -2.437289 0.315578 0.462678 -0.095854 -3523.292213 1343.917372 -62.800748 0.370574 0.133409 -0.335156
3.210000 0.739770 167.799155 -2.571396 0.326507 0.466478 -0.096020 -3425.235778 1577.209521 -65.215409 0.359581 0.130377 -0.335166
3.220000 2.929381 176.494453 -2.678917 0.338158 0.469614 -0.096112 -3305.164641 1815.440702 -67.442741 0.348414 0.128206 -0.335189
3.230000 2.956842 183.478624 -2.785984 0.349849 0.471761 -0.096406 -3180.284704 2026.317818 -69.191942 0.337128 0.126910 -0.335224
3.240000 5.905366 188.879258 -2.833768 0.361476 0.472946 -0.096444 -2991.264726 2296.294162 -71.082853 0.325839 0.126577 -0.335261
3.250000 5.138249 193.147426 -2.908574 0.373035 0.473190 -0.096649 -2815.290759 2509.001000 -72.249151 0.314520 0.127065 -0.335393
3.260000 2.971781 196.517554 -2.986305 0.384522 0.472530 -0.096689 -2633.570712 2699.198500 -73.000606 0.303159 0.128508 -0.335407
3.270000 0.545088 199.343128 -3.058775 0.395811 0.470775 -0.096744 -2440.117734 2875.362405 -73.395952 0.291849 0.130884 -0.335455
3.280000 -1.055860 201.725410 -3.114553 0.406795 0.468092 -0.096879 -2223.174887 3046.263505 -73.429454 0.280634 0.134136 -0.335536
3.290000 -4.665305 203.714334 -3.188302 0.417402 0.464513 -0.096933 -2029.718290 3178.447415 -73.148477 0.269738 0.138450 -0.335528
3.300000 -1.604136 205.689694 -3.182068 0.427563 0.459969 -0.096980 -1727.676317 3352.241975 -72.208764 0.259259 0.143472 -0.335499
3.310000 -2.681234 207.681044 -3.225570 0.437296 0.454591 -0.097050 -1488.318740 3465.165053 -71.082680 0.249197 0.149372 -0.335533
3.320000 -3.931334 210.472902 -3.283451 0.446401 0.448218 -0.096952 -1252.591975 3557.222447 -69.679166 0.239674 0.156082 -0.335539
3.330000 -5.107337 214.249226 -3.355583 0.454803 0.441085 -0.097050 -1019.588937 3630.964803 -68.026595 0.230669 0.163583 -0.335536
3.340000 -0.443740 219.135537 -3.374947 0.462931 0.433122 -0.096622 -686.568240 3708.487129 -65.236029 0.222275 0.171642 -0.335381
3.350000 -0.425605 224.657485 -3.459641 0.470291 0.424413 -0.096620 -429.896883 3747.011008 -62.758854 0.214597 0.180393 -0.335274
3.360000 0.509170 230.072184 -3.531724 0.476877 0.415052 -0.096615 -150.209908 3768.643548 -59.746695 0.207562 0.189500 -0.335153
3.370000 -2.191653 234.700491 -3.635193 0.482961 0.404972 -0.096631 81.156931 3770.771025 -57.012472 0.201414 0.199352 -0.335132
3.380000 -2.668870 238.065110 -3.692637 0.488370 0.394439 -0.096687 363.341312 3754.082464 -53.381184 0.195975 0.209639 -0.335101
3.390000 -0.516252 240.208363 -3.699851 0.493178 0.383239 -0.096697 697.502884 3706.524402 -48.653617 0.191385 0.220079 -0.335113
3.400000 -4.036447 241.269664 -3.758269 0.497157 0.371737 -0.096519 951.402913 3649.563743 -44.741321 0.187578 0.231015 -0.335043
3.410000 -8.496799 242.058763 -3.823744 0.500515 0.359755 -0.096339 1193.930254 3577.531222 -40.733273 0.184641 0.242347 -0.335041
